<?xml version="1.0" encoding="utf-8"?>
<!-- Generator: Adobe Illustrator 20.0.0, SVG Export Plug-In . SVG Version: 6.00 Build 0)  -->
<svg version="1.1" id="Layer_1" xmlns="http://www.w3.org/2000/svg" xmlns:xlink="http://www.w3.org/1999/xlink" x="0px" y="0px"
	 viewBox="0 0 240 93.1" style="enable-background:new 0 0 240 93.1;" xml:space="preserve">
<path d="M218.4,45.5c-1,1.3-2.8,2.5-2,4.2c1.2,0.7,2.6-0.1,3.6-0.7c2.4-1.8,4.4-4.3,4.6-7.1l-0.2,0
	C222.3,42.8,220.2,43.9,218.4,45.5 M197.1,50c0.1,0.6,0.8,0.9,1.4,0.8c3.4-0.9,5.7-4.1,6.5-7.3c0,0,0.1-0.2-0.1-0.5
	c-0.2-0.3-0.7-0.1-0.7-0.1C201.3,44.1,197.9,46.4,197.1,50z M174,28.6c5.2-4.1,11.1-9.2,14.5-14.9c1-1.7,2.2-4.7,2.2-5.6
	c0-0.9,0-0.8-0.3-1.2c-0.2-0.2-0.4-0.3-1.1,0c-0.8,0.3-2.5,1.8-3.7,2.9C180.6,15.6,177,22,174,28.6z M97.3,56.4
	c-0.9,2-2.5,4.5-1,6.7c0.7,0.4,1.5,0.1,2.2,0c4.2-2,7.5-6.3,9.6-10.2c0.6-1.4,1.7-3.6,0.3-5c-1.6-0.7-3.2,0.2-4.5,1.2
	C101.1,50.9,98.9,53.8,97.3,56.4z M53.1,61.2c7.6-2,15.2-3.3,23.2-4.1l1.7-2.4c3.4-6.5,7.5-14.6,3.8-22.1c-1.2-2.7-4.1-4-6.5-4.9
	L53.1,61.2z M21.5,84.2c0.2,1.2,1.6,1.7,2.6,2c8.9,1.7,22.6-3.8,32.3-9.8c6.1-4.2,12.8-9.6,17.5-15.6C65.4,62.1,57,64.2,49.1,67
	l-6.5,9.6c-1.2,1.8-2.8,4.4-5.3,4.1c-0.8-0.2-1.1-0.9-0.8-1.8l5.1-9.4c-5.4,1.8-10.5,4.1-15.2,7.6C24.1,78.9,21.3,81,21.5,84.2z
	 M10.9,23.6c18.5-6.8,39.2-11.2,60.5-8.1l2.3-3.8C78.1,11,82.6,10.5,87,10l-5.9,9c5.8,2.5,10.6,8.5,11.1,14.8
	c0,8.5-3.8,15.7-8.3,22.3l6.2-0.8c4.4-6.9,16.4-16,21.6-9.1c0,0-0.8-1.2,0,0l1.8-2.5l8-1.1L111.2,60c-0.1,0.3,0,0.7,0.5,0.7
	c2.4-1.1,4.6-2.8,6.5-4.6c4.9-4.5,9.1-9.5,12.3-14.8l7.7-0.8l-4.3,7.5c3.6-2.8,7.2-7,11.6-8.8c1.2-0.5,2.6-0.1,3.6,0.4
	c1,0.8,1.3,1.9,1.3,3.2c-1.6,4.9-5,8.9-7.5,13.4c-0.1,0.4-0.2,0.7,0.3,0.9c6.1-3.1,12.1-9,16.5-14.6l-7.1,0.9l2.6-4.8l6.6-0.6
	c8.2-12.9,16.2-27.1,29.5-36.5c1.7-0.8,4.1-2.3,5.8-0.6c1.5,2.7-0.2,5.8-1.3,8.3c-5.6,10.3-16.6,18.7-25.7,26l-0.7,1.8l15.6-1.7
	c0.3,0.1,0.2,0.7,0.1,1c-5.1,4.3-10.6,9.2-11.3,15.7c-0.2,1.1,0.6,1.8,1.4,2.2c3.7,0.9,6.2-2.8,8.6-5.2c1.4-1.8,3.3-3.7,3.9-5.8
	c-1.3-0.6-2.1-2.3-2-3.5c0.2-3,1.6-5.5,4-7.3c0.8-0.5,2.1-0.7,3.1-0.3c0.7,0.5,1.6,1.2,1.7,2.1c0.4,2.6-0.7,4.8-1.7,6.9
	c5.2-0.8,9.5-4.3,13.6-8l0.5-0.8c0.2-3.5,0.8-6.9,3.6-9.2c1.4-1,3.2-2.3,5-1.1c1.3,0.6,0.9,3.3,0.9,3.3c-0.7,3.5-7.1,5.8-5.9,10.8
	c0.2,0.7-0.3,1.5,0.3,1.8c5.2-1.3,10.3-3.8,15.1-6.2c0.5-1.5,0-3.1,0.5-4.5c0.7-2.7,2.4-5.5,5.2-6.7c0.9-0.2,1.8-0.3,2.6,0.1
	c1,0.9,1.4,2.2,0.9,3.5c-0.5,3.3-3.4,5.8-5.7,8.2c-0.6,5.7,1.5,11.4-0.7,16.5c-2.3,4.6-7.1,6.9-12,7.1c-1.9-0.2-4.1-0.8-4.8-2.9
	c-1.1-3.9,1.7-7.3,4.7-9.6c2.6-2.2,5.6-3.5,8.6-4.8c1.1-1,1-2.9,0.8-4.2c-2.7,1.3-5.9,2.8-8.8,4l-6.6,2.6
	c-0.1,5.5-1.6,11.2-6.4,14.2c-3.1,1.4-7.7,3.1-10.9,0.6c-1.5-1.2-1.6-3.3-1.2-5c1.8-6.6,8.9-8.7,14-11.3c0.8-1,0.5-2.4,0.3-3.4
	c-4.5,3.8-10,7.1-15.7,7.6c-4.2,6.4-10.7,15.6-19.3,15c-1.5,0-2.7-0.7-3.9-1.6c-2.4-2.8-1.1-7,0.3-9.8c1.5-2.9,4.3-5.3,6.4-7.7
	c-2.5,0.2-7.2,0.9-7.2,0.9l-12.8,23.7l3.6-0.2l20.5-2.1l24.8-1.6l27.8-1.1c2.2-0.2,4.5,0,6.7,0l-5,4.4c2.2,1.6,4.6,3.3,7,4.7
	l-0.1,0.2l-20-0.7l-25,0.2l-32.5,1.4c-3.7,0.4-7.5,0.5-11.2,0.8l-7.1,12.9l-8.7,0.6l7.3-12.5l0.2-0.3l-16.2,1l-29.6,2.9l-24.1,3.1
	c0.7-0.9,0.9-2.7,2.5-2.7l31.7-5.4l19.3-2.5l19.5-1.9l6.3-10.8c-0.3-0.3-0.6,0-0.9,0.2c-4.1,3.5-8.4,6.8-13.6,7.7
	c-1-0.1-1.9-0.5-2.6-1.1c-2.3-4,2.4-8.5,3.6-10.9c0,0,1.4-2.2,2.3-4.2c0,0,0.1-0.2,0-0.3c-0.2-0.2-0.4-0.1-0.4-0.1
	c-6.1,5-12.2,11.2-16.5,17.7c-2.3,0.1-4.6,0.3-6.9,0.6c0.8-2.2,2-4.5,3.2-6.6c-3.8,2.9-7.5,6.2-11.8,7.8c-1.2,0.5-3.7,0.7-5.2-2.4
	c-4.2,3-9,6.8-14.4,4.7c-1.4-1.1-1.9-2.7-2-4.3c0-1.6,0.3-3.1,0.9-4.4l0.1,0l-6.7,0.7C67,75.3,49.3,87.4,29.6,91.8
	c-5.5,1.1-12,1.9-17.6,0.5C10,91.8,8,90.1,7.7,88c-0.1-5,4.6-8.9,8.5-11.7c8.9-5.8,18.7-9.5,28.7-12.6l1.6-2.7l19.6-35.8h0.1
	c-24-2.6-45.3,6.2-64.5,17.1L0,43.2L10.9,23.6z"/>
</svg>
